<svg width="27" height="27" viewBox="0 0 27 27" fill="none" xmlns="http://www.w3.org/2000/svg">
<g clip-path="url(#clip0_13_1613)">
<path d="M26.625 3.29167V23.7083C26.625 25.3192 25.3192 26.625 23.7083 26.625H18.2396C17.8369 26.625 17.5104 26.2985 17.5104 25.8958V17.1458H20.9229C21.2695 17.1459 21.5682 16.9021 21.6375 16.5625L22.1625 13.9375C22.1842 13.8315 22.1576 13.7213 22.09 13.6368C22.0224 13.5522 21.9207 13.5021 21.8125 13.5H17.5104V8.76042C17.5104 8.55906 17.6736 8.39583 17.875 8.39583H21.5208C21.9235 8.39583 22.25 8.06937 22.25 7.66667V5.47917C22.25 5.07646 21.9235 4.75 21.5208 4.75H17.875C15.4588 4.75 13.5 6.70875 13.5 9.125V13.5H11.7063C11.3035 13.5 10.9771 13.8265 10.9771 14.2292V16.4167C10.9771 16.8194 11.3035 17.1458 11.7063 17.1458H13.5V25.8958C13.5 26.2985 13.1735 26.625 12.7708 26.625H3.29167C1.68084 26.625 0.375 25.3192 0.375 23.7083V3.29167C0.375 1.68084 1.68084 0.375 3.29167 0.375H23.7083C25.3192 0.375 26.625 1.68084 26.625 3.29167Z" fill="#333333"/>
</g>
<defs>
<clipPath id="clip0_13_1613">
<rect width="27" height="27" fill="white"/>
</clipPath>
</defs>
</svg>
