<svg width="27" height="27" viewBox="0 0 27 27" fill="none" xmlns="http://www.w3.org/2000/svg">
<g clip-path="url(#clip0_13_1616)">
<path d="M19.3333 0.375H7.66667C3.63959 0.375 0.375 3.63959 0.375 7.66667V19.3333C0.375 23.3604 3.63959 26.625 7.66667 26.625H19.3333C23.3604 26.625 26.625 23.3604 26.625 19.3333V7.66667C26.625 3.63959 23.3604 0.375 19.3333 0.375ZM24.0729 19.3333C24.0649 21.9476 21.9476 24.0649 19.3333 24.0729H7.66667C5.05239 24.0649 2.93509 21.9476 2.92708 19.3333V7.66667C2.93509 5.05239 5.05239 2.93509 7.66667 2.92708H19.3333C21.9476 2.93509 24.0649 5.05239 24.0729 7.66667V19.3333ZM21.8854 6.57292C21.8854 7.37833 21.2325 8.03125 20.4271 8.03125C19.6217 8.03125 18.9688 7.37833 18.9688 6.57292C18.9688 5.7675 19.6217 5.11458 20.4271 5.11458C21.2325 5.11458 21.8854 5.7675 21.8854 6.57292ZM13.5 6.9375C9.87563 6.9375 6.9375 9.87563 6.9375 13.5C6.9375 17.1244 9.87563 20.0625 13.5 20.0625C17.1244 20.0625 20.0625 17.1244 20.0625 13.5C20.0664 11.7583 19.3762 10.0869 18.1447 8.85532C16.9131 7.62377 15.2417 6.93362 13.5 6.9375ZM13.5 17.5104C11.2851 17.5104 9.48958 15.7149 9.48958 13.5C9.48958 11.2851 11.2851 9.48958 13.5 9.48958C15.7149 9.48958 17.5104 11.2851 17.5104 13.5C17.5104 15.7149 15.7149 17.5104 13.5 17.5104Z" fill="#333333"/>
</g>
<defs>
<clipPath id="clip0_13_1616">
<rect width="27" height="27" fill="white"/>
</clipPath>
</defs>
</svg>
