<svg width="913" height="792" viewBox="0 0 913 792" fill="none" xmlns="http://www.w3.org/2000/svg">
<g clip-path="url(#clip0_8_91)">
<path d="M251.382 304.089C163.035 339.716 76.9034 396.907 34.4234 489.725C-8.05673 582.544 0.758305 680.29 0.758305 680.29L316.249 542.295L588.032 412.514C588.032 412.514 694.075 334.858 745.683 261.377C781.633 210.19 830.256 116.811 830.256 116.811L894.302 25.6353C894.302 25.6353 883.895 26.9379 849.963 66.7052C823.394 97.8432 777.028 165.911 745.683 186.629C670.217 236.511 616.425 252.098 526.45 261.377C426.802 271.653 344.293 266.623 251.382 304.089Z" fill="url(#paint0_linear_8_91)" fill-opacity="0.4"/>
<path d="M676.523 327.089C646.191 359 626.226 374.766 588.666 397.729C445.761 485.095 252.589 450.005 108.322 531.617C30.5217 575.628 -30.1315 658.823 16.3604 717.253C86.3484 805.212 238.728 798.571 337.41 782.143C432.814 766.262 488.661 748.182 568.96 694.254C696.169 608.819 794.479 373.087 794.479 373.087C794.479 373.087 880.218 159.18 913 0.171875C877.143 24.487 833.967 60.0686 810.363 97.9183C754.527 187.451 739.416 260.922 676.523 327.089Z" fill="url(#paint1_linear_8_91)"/>
</g>
<defs>
<linearGradient id="paint0_linear_8_91" x1="681.21" y1="232.844" x2="336.58" y2="744.232" gradientUnits="userSpaceOnUse">
<stop stop-color="#FB3007"/>
<stop offset="1" stop-color="#E6BBBB"/>
</linearGradient>
<linearGradient id="paint1_linear_8_91" x1="695.49" y1="250.853" x2="256.788" y2="800.097" gradientUnits="userSpaceOnUse">
<stop stop-color="#FB3007"/>
<stop offset="1" stop-color="#E6BBBB"/>
</linearGradient>
<clipPath id="clip0_8_91">
<rect width="913" height="792" fill="white"/>
</clipPath>
</defs>
</svg>
