<svg width="913" height="792" viewBox="0 0 913 792" fill="none" xmlns="http://www.w3.org/2000/svg">
<g clip-path="url(#clip0_8_91)">
<path d="M251.382 304.261C163.035 339.887 76.9034 397.079 34.4234 489.897C-8.05673 582.715 0.758305 680.462 0.758305 680.462L316.249 542.467L588.032 412.686C588.032 412.686 694.075 335.029 745.683 261.548C781.633 210.362 830.256 116.982 830.256 116.982L894.302 25.8069C894.302 25.8069 883.895 27.1095 849.963 66.8768C823.394 98.0148 777.028 166.083 745.683 186.801C670.217 236.683 616.425 252.269 526.45 261.548C426.802 271.825 344.293 266.794 251.382 304.261Z" fill="url(#paint0_linear_8_91)" fill-opacity="0.4"/>
<path d="M676.523 327.26C646.191 359.172 626.226 374.938 588.666 397.9C445.761 485.267 252.589 450.177 108.322 531.788C30.5217 575.8 -30.1315 658.995 16.3604 717.424C86.3484 805.384 238.728 798.742 337.41 782.315C432.814 766.433 488.661 748.354 568.96 694.425C696.169 608.991 794.479 373.258 794.479 373.258C794.479 373.258 880.218 159.351 913 0.343506C877.143 24.6586 833.967 60.2402 810.363 98.0899C754.527 187.622 739.416 261.094 676.523 327.26Z" fill="url(#paint1_linear_8_91)"/>
</g>
<defs>
<linearGradient id="paint0_linear_8_91" x1="657.084" y1="268.779" x2="223.644" y2="642.407" gradientUnits="userSpaceOnUse">
<stop stop-color="#7E1A5E"/>
<stop offset="1" stop-color="#B6D77D"/>
</linearGradient>
<linearGradient id="paint1_linear_8_91" x1="670.864" y1="294.291" x2="166.484" y2="661.122" gradientUnits="userSpaceOnUse">
<stop stop-color="#7E1A5E"/>
<stop offset="1" stop-color="#B6D77D"/>
</linearGradient>
<clipPath id="clip0_8_91">
<rect width="913" height="792" fill="white"/>
</clipPath>
</defs>
</svg>
