<svg width="913" height="792" viewBox="0 0 913 792" fill="none" xmlns="http://www.w3.org/2000/svg">
<g clip-path="url(#clip0_8_91)">
<path d="M251.382 303.917C163.035 339.544 76.9034 396.736 34.4234 489.554C-8.05673 582.372 0.758305 680.118 0.758305 680.118L316.249 542.123L588.032 412.342C588.032 412.342 694.075 334.686 745.683 261.205C781.633 210.018 830.256 116.639 830.256 116.639L894.302 25.4634C894.302 25.4634 883.895 26.766 849.963 66.5333C823.394 97.6713 777.028 165.739 745.683 186.457C670.217 236.339 616.425 251.926 526.45 261.205C426.802 271.481 344.293 266.451 251.382 303.917Z" fill="url(#paint0_linear_8_91)" fill-opacity="0.4"/>
<path d="M676.523 326.917C646.191 358.828 626.226 374.594 588.666 397.557C445.761 484.923 252.589 449.833 108.322 531.445C30.5216 575.457 -30.1316 658.651 16.3603 717.081C86.3484 805.04 238.728 798.399 337.41 781.971C432.814 766.09 488.661 748.011 568.96 694.082C696.169 608.647 794.479 372.915 794.479 372.915C794.479 372.915 880.218 159.008 913 0C877.143 24.3151 833.967 59.8967 810.362 97.7464C754.527 187.279 739.415 260.75 676.523 326.917Z" fill="url(#paint1_linear_8_91)"/>
</g>
<defs>
<linearGradient id="paint0_linear_8_91" x1="771.458" y1="231.583" x2="265.456" y2="772.101" gradientUnits="userSpaceOnUse">
<stop stop-color="#E5FDF0"/>
<stop offset="1" stop-color="#C7FF3F"/>
</linearGradient>
<linearGradient id="paint1_linear_8_91" x1="787.609" y1="249.363" x2="177.415" y2="799.316" gradientUnits="userSpaceOnUse">
<stop stop-color="#E5FDF0"/>
<stop offset="1" stop-color="#C7FF3F"/>
</linearGradient>
<clipPath id="clip0_8_91">
<rect width="913" height="792" fill="white"/>
</clipPath>
</defs>
</svg>
