<svg width="27" height="27" viewBox="0 0 27 27" fill="none" xmlns="http://www.w3.org/2000/svg">
<g clip-path="url(#clip0_13_1607)">
<path fill-rule="evenodd" clip-rule="evenodd" d="M26.6501 13.5255C26.6501 20.7742 20.7739 26.6505 13.5251 26.6505C6.27641 26.6505 0.400146 20.7742 0.400146 13.5255C0.400146 6.27677 6.27641 0.400513 13.5251 0.400513C20.7739 0.400513 26.6501 6.27677 26.6501 13.5255ZM11.7137 14.3095L5.44011 5.92126H10.2753L14.3882 11.4204L19.4783 5.92126H20.8993L15.023 12.2696L21.6497 21.1296H16.8145L12.3488 15.1584L6.82152 21.1296H5.40057L11.7137 14.3095ZM9.75094 6.96782H7.52967L17.3386 20.083H19.5599L9.75094 6.96782Z" fill="#333333"/>
</g>
<defs>
<clipPath id="clip0_13_1607">
<rect width="27" height="27" fill="white"/>
</clipPath>
</defs>
</svg>
